<svg width="477.00000000000006" height="511" xmlns="http://www.w3.org/2000/svg">

 <g id="imagebot_2">
  <path fill-rule="evenodd" stroke="black" stroke-width="0.036" stroke-miterlimit="10" fill="#bf5f00" d="M 41.35894180118129 262.057999999905 C 41.35894180118129 393.917999999905 128.47794180118126 500.877999999905 235.93894180118127 500.877999999905 S 430.5189418011813 393.917999999905 430.5189418011813 262.057999999905 C 430.5189418011813 130.147999999905 343.3989418011813 23.197999999904994 235.93894180118127 23.197999999904994 C 128.4789418011813 23.193999999905003 41.35894180118129 130.147999999905 41.35894180118129 262.057999999905 L 41.35994180118129 262.057999999905 L 41.35894180118129 262.057999999905 z" id="imagebot_38"/>
  <path stroke="black" stroke-width="0.036" stroke-miterlimit="10" fill-rule="evenodd" d="M 56.0974418011813 199.417999999905 C 54.87344180118129 194.557999999905 52.677441801181295 191.10799999990502 49.3654418011813 188.617999999905 C 46.05344180118129 186.137999999905 41.589441801181295 184.807999999905 36.369441801181296 184.76799999990502 C 31.005441801181295 184.657999999905 22.761441801181295 184.477999999905 17.613441801181295 188.117999999905 C 12.357441801181295 191.717999999905 8.217441801181296 198.04799999990502 5.337441801181296 206.147999999905 C 2.313441801181296 214.147999999905 -0.27855819881870414 225.947999999905 0.0454418011812959 235.747999999905 C 0.33344180118129596 245.497999999905 2.349441801181296 256.877999999905 7.497441801181296 263.897999999905 C 12.573441801181296 270.807999999905 24.489441801181297 275.237999999905 30.609441801181298 276.637999999905 C 36.549441801181295 277.757999999905 40.1494418011813 274.65799999990503 43.3534418011813 271.097999999905 C 46.5214418011813 267.497999999905 48.4294418011813 262.197999999905 49.3654418011813 255.217999999905 L 56.0974418011813 199.417999999905 z" id="imagebot_37"/>
  <path fill-rule="evenodd" fill="#bf5f00" d="M 50.0854418011813 259.327999999905 C 49.509441801181296 257.487999999905 48.7894418011813 256.727999999905 47.92544180118129 256.90799999990503 C 47.061441801181296 257.167999999905 46.0174418011813 258.317999999905 44.793441801181295 260.507999999905 C 43.3534418011813 262.637999999905 41.805441801181296 266.917999999905 39.753441801181296 269.187999999905 C 37.629441801181294 271.277999999905 36.0454418011813 273.077999999905 32.769441801181294 273.037999999905 C 29.385441801181297 272.857999999905 24.381441801181296 271.057999999905 20.277441801181297 268.46799999990503 C 16.137441801181296 265.737999999905 11.061441801181296 262.097999999905 8.253441801181296 257.417999999905 C 5.301441801181296 252.667999999905 3.753441801181296 247.01799999990502 3.177441801181296 240.317999999905 C 2.853441801181296 239.097999999905 3.069441801181296 236.287999999905 3.681441801181296 231.897999999905 C 4.293441801181296 227.35799999990502 5.229441801181296 219.57799999990502 7.029441801181296 213.85799999990502 C 8.793441801181295 207.957999999905 11.025441801181296 201.57799999990502 14.013441801181296 197.51799999990502 C 16.965441801181296 193.447999999905 20.493441801181294 190.887999999905 24.597441801181297 189.557999999905 C 28.485441801181295 188.04799999990502 34.137441801181296 188.587999999905 37.80944180118129 188.837999999905 C 41.3374418011813 189.01799999990502 44.001441801181294 189.667999999905 46.23344180118129 190.777999999905 C 48.357441801181295 191.85799999990502 50.013441801181294 193.29799999990502 51.0574418011813 195.097999999905 C 52.101441801181295 196.717999999905 51.741441801181296 199.747999999905 52.497441801181296 200.85799999990502 C 53.18144180118129 201.907999999905 54.009441801181296 202.197999999905 55.125441801181296 201.57799999990502 C 56.1334418011813 200.85799999990502 57.2134418011813 199.597999999905 58.509441801181296 197.257999999905 C 55.701441801181296 217.927999999905 52.8934418011813 238.627999999905 50.0854418011813 259.327999999905 z" id="imagebot_36"/>
  <path stroke="black" stroke-width="0.036" stroke-miterlimit="10" fill-rule="evenodd" d="M 45.29744180118129 211.227999999905 C 44.793441801181295 209.717999999905 42.165441801181295 207.127999999905 39.753441801181296 205.937999999905 C 37.1974418011813 204.60799999990502 33.561441801181296 203.167999999905 30.357441801181295 203.987999999905 C 27.009441801181296 204.787999999905 23.121441801181295 206.687999999905 20.493441801181294 210.977999999905 C 17.829441801181297 215.257999999905 15.489441801181297 222.787999999905 14.985441801181295 229.26799999990502 C 14.409441801181297 235.667999999905 15.021441801181297 244.707999999905 17.361441801181297 248.987999999905 C 19.665441801181295 253.097999999905 25.137441801181296 254.177999999905 28.917441801181297 254.027999999905 C 32.5174418011813 253.747999999905 37.98944180118129 249.567999999905 39.501441801181294 247.76799999990502 C 40.869441801181296 245.897999999905 39.6094418011813 242.977999999905 37.80944180118129 243.197999999905 C 35.973441801181295 243.377999999905 31.581441801181295 248.26799999990502 28.917441801181297 248.987999999905 C 26.073441801181296 249.60799999990502 23.445441801181296 248.887999999905 21.717441801181295 246.82799999990502 C 19.989441801181297 244.637999999905 19.053441801181297 241.037999999905 19.053441801181297 236.467999999905 C 18.981441801181298 231.787999999905 19.881441801181296 223.82799999990502 21.465441801181296 219.397999999905 C 22.941441801181295 214.937999999905 25.785441801181296 211.407999999905 28.197441801181295 209.787999999905 C 30.573441801181296 208.027999999905 33.4174418011813 208.457999999905 35.9014418011813 209.287999999905 C 38.2774418011813 210.10799999990502 40.97744180118129 214.147999999905 42.6334418011813 214.57799999990502 C 44.1454418011813 214.787999999905 45.729441801181295 212.707999999905 45.29744180118129 211.227999999905 z" id="imagebot_35"/>
  <path stroke="black" stroke-width="0.036" stroke-miterlimit="10" fill-rule="evenodd" d="M 420.78044180118127 201.507999999905 C 421.9604418011813 196.687999999905 424.1604418011813 193.117999999905 427.5104418011813 190.667999999905 C 430.78044180118127 188.147999999905 435.1004418011813 186.927999999905 440.4704418011813 186.85799999990502 C 445.8004418011813 186.747999999905 454.0004418011813 186.567999999905 459.2604418011813 190.207999999905 C 464.4404418011813 193.807999999905 468.4804418011813 200.137999999905 471.5004418011813 208.237999999905 C 474.4204418011813 216.227999999905 477.0104418011813 228.037999999905 476.7904418011813 237.82799999990502 C 476.4004418011813 247.587999999905 474.3804418011813 258.96799999990503 469.34044180118127 265.987999999905 C 464.1604418011813 272.897999999905 452.2004418011813 277.327999999905 446.2604418011813 278.727999999905 C 440.2204418011813 279.837999999905 436.6204418011813 276.747999999905 433.5204418011813 273.177999999905 C 430.3204418011813 269.577999999905 428.4104418011813 264.287999999905 427.5104418011813 257.307999999905 L 420.78044180118127 201.507999999905 z" id="imagebot_34"/>
  <path fill-rule="evenodd" fill="#bf5f00" d="M 426.7904418011813 261.40799999990503 C 427.3304418011813 259.577999999905 428.0504418011813 258.817999999905 428.9504418011813 258.997999999905 C 429.7004418011813 259.247999999905 430.7504418011813 260.40799999990503 432.0804418011813 262.597999999905 C 433.4804418011813 264.727999999905 435.03044180118127 269.007999999905 437.1204418011813 271.277999999905 C 439.1704418011813 273.367999999905 440.7204418011813 275.167999999905 444.1004418011813 275.127999999905 C 447.3804418011813 274.947999999905 452.4204418011813 273.147999999905 456.6004418011813 270.557999999905 C 460.6304418011813 267.857999999905 465.7404418011813 264.117999999905 468.6204418011813 259.46799999990503 C 471.5404418011813 254.677999999905 473.0504418011813 249.137999999905 473.7004418011813 242.407999999905 C 473.9804418011813 241.177999999905 473.7704418011813 238.377999999905 473.1904418011813 233.977999999905 C 472.4704418011813 229.447999999905 471.5404418011813 221.667999999905 469.84044180118127 215.947999999905 C 468.0404418011813 210.037999999905 465.8104418011813 203.667999999905 462.8604418011813 199.597999999905 C 459.8004418011813 195.537999999905 456.2704418011813 192.977999999905 452.28044180118127 191.647999999905 C 448.2104418011813 190.137999999905 442.6304418011813 190.677999999905 439.03044180118127 190.927999999905 C 435.3904418011813 191.10799999990502 432.7304418011813 191.757999999905 430.6004418011813 192.867999999905 C 428.34044180118127 193.947999999905 426.7904418011813 195.387999999905 425.8204418011813 197.187999999905 C 424.6604418011813 198.807999999905 425.0604418011813 201.837999999905 424.3804418011813 202.947999999905 C 423.6204418011813 203.997999999905 422.6804418011813 204.277999999905 421.7104418011813 203.667999999905 C 420.6704418011813 202.947999999905 419.5504418011813 201.687999999905 418.3604418011813 199.347999999905 C 421.1704418011813 220.007999999905 423.9804418011813 240.707999999905 426.7904418011813 261.40799999990503 z" id="imagebot_33"/>
  <path stroke="black" stroke-width="0.036" stroke-miterlimit="10" fill-rule="evenodd" d="M 431.5804418011813 213.317999999905 C 432.0104418011813 211.807999999905 434.6004418011813 209.207999999905 437.1204418011813 208.027999999905 C 439.5704418011813 206.687999999905 443.2404418011813 205.247999999905 446.4804418011813 206.07799999990502 C 449.7604418011813 206.867999999905 453.6404418011813 208.777999999905 456.34044180118127 213.067999999905 C 458.8604418011813 217.347999999905 461.3104418011813 224.867999999905 461.8904418011813 231.347999999905 C 462.3604418011813 237.757999999905 461.78044180118127 246.79799999990502 459.4804418011813 251.07799999990502 C 457.03044180118127 255.187999999905 451.6604418011813 256.267999999905 447.9604418011813 256.117999999905 C 444.2504418011813 255.82799999990502 438.78044180118127 251.657999999905 437.3704418011813 249.85799999990502 C 435.9704418011813 247.987999999905 437.1204418011813 245.067999999905 439.03044180118127 245.287999999905 C 440.7604418011813 245.467999999905 445.2204418011813 250.35799999990502 447.9604418011813 251.07799999990502 C 450.6604418011813 251.617999999905 453.4304418011813 250.937999999905 455.1604418011813 248.887999999905 C 456.8104418011813 246.647999999905 457.6404418011813 243.157999999905 457.78044180118127 238.54799999990502 C 457.7104418011813 233.867999999905 456.9204418011813 225.917999999905 455.4104418011813 221.487999999905 C 453.8604418011813 216.917999999905 451.0204418011813 213.567999999905 448.6804418011813 211.837999999905 C 446.1904418011813 210.037999999905 443.3504418011813 210.57799999990502 440.9704418011813 211.367999999905 C 438.4904418011813 212.197999999905 435.8204418011813 216.227999999905 434.2404418011813 216.667999999905 C 432.6204418011813 216.877999999905 431.0404418011813 214.787999999905 431.5804418011813 213.317999999905 z" id="imagebot_32"/>
  <path stroke="black" stroke-width="0.036" stroke-miterlimit="10" fill-rule="evenodd" d="M 142.7104418011813 204.787999999905 C 142.7104418011813 211.407999999905 148.6904418011813 216.807999999905 156.0304418011813 216.807999999905 C 163.3804418011813 216.807999999905 169.3504418011813 211.407999999905 169.3504418011813 204.787999999905 C 169.3504418011813 198.157999999905 163.3804418011813 192.757999999905 156.0304418011813 192.757999999905 C 148.6904418011813 192.757999999905 142.7104418011813 198.157999999905 142.7104418011813 204.787999999905 z" id="imagebot_31"/>
  <path fill-rule="evenodd" stroke="black" stroke-width="0.036" stroke-miterlimit="10" fill="white" d="M 149.4404418011813 202.587999999905 C 149.4404418011813 204.60799999990502 151.0604418011813 206.227999999905 153.0404418011813 206.227999999905 C 155.0604418011813 206.227999999905 156.6804418011813 204.60799999990502 156.6804418011813 202.587999999905 C 156.6804418011813 200.60799999990502 155.0604418011813 198.987999999905 153.0404418011813 198.987999999905 C 151.0604418011813 198.987999999905 149.4404418011813 200.60799999990502 149.4404418011813 202.587999999905 z" id="imagebot_30"/>
  <path stroke="black" stroke-width="0.036" stroke-miterlimit="10" fill-rule="evenodd" d="M 120.8604418011813 147.54799999990502 C 125.5004418011813 146.387999999905 135.0404418011813 145.097999999905 141.9904418011813 144.76799999990502 C 149.0104418011813 144.377999999905 157.1104418011813 144.627999999905 162.2604418011813 145.387999999905 C 167.23044180118129 146.10799999990502 171.5504418011813 147.977999999905 171.8704418011813 149.197999999905 C 171.9404418011813 150.387999999905 168.0604418011813 152.227999999905 163.5204418011813 152.477999999905 C 158.9104418011813 152.587999999905 151.14044180118128 150.027999999905 144.9104418011813 150.067999999905 C 138.5004418011813 149.987999999905 130.98044180118129 151.537999999905 126.0804418011813 152.367999999905 C 121.0804418011813 153.197999999905 117.6904418011813 154.777999999905 115.6404418011813 154.747999999905 C 113.5504418011813 154.487999999905 112.9004418011813 152.657999999905 113.8404418011813 151.467999999905 C 114.7004418011813 150.207999999905 116.07044180118129 148.627999999905 120.8604418011813 147.54799999990502 z" id="imagebot_29"/>
  <path stroke="black" stroke-width="0.036" stroke-miterlimit="10" fill-rule="evenodd" d="M 328.5804418011813 205.037999999905 C 328.5804418011813 211.54799999990502 322.6004418011813 216.807999999905 315.2604418011813 216.807999999905 C 307.8804418011813 216.807999999905 301.9404418011813 211.54799999990502 301.9404418011813 205.037999999905 C 301.9404418011813 198.51799999990502 307.8804418011813 193.26799999990502 315.2604418011813 193.26799999990502 C 322.6004418011813 193.26799999990502 328.5804418011813 198.51799999990502 328.5804418011813 205.037999999905 z" id="imagebot_28"/>
  <path fill-rule="evenodd" stroke="black" stroke-width="0.036" stroke-miterlimit="10" fill="white" d="M 317.9604418011813 202.837999999905 C 317.9604418011813 204.85799999990502 316.34044180118127 206.477999999905 314.3604418011813 206.477999999905 C 312.34044180118127 206.477999999905 310.7204418011813 204.85799999990502 310.7204418011813 202.837999999905 C 310.7204418011813 200.85799999990502 312.34044180118127 199.207999999905 314.3604418011813 199.207999999905 C 316.34044180118127 199.207999999905 317.9604418011813 200.85799999990502 317.9604418011813 202.837999999905 z" id="imagebot_27"/>
  <path stroke="black" stroke-width="0.036" stroke-miterlimit="10" fill-rule="evenodd" d="M 359.1104418011813 148.907999999905 C 354.7504418011813 147.367999999905 346.4704418011813 145.097999999905 340.1004418011813 144.197999999905 C 333.6604418011813 143.117999999905 326.2004418011813 142.647999999905 321.4904418011813 142.937999999905 C 316.8104418011813 143.187999999905 312.4504418011813 144.627999999905 312.1604418011813 145.847999999905 C 311.7304418011813 147.037999999905 315.3004418011813 149.197999999905 319.4004418011813 149.847999999905 C 323.5004418011813 150.347999999905 330.9604418011813 148.54799999990502 336.7504418011813 149.167999999905 C 342.4404418011813 149.667999999905 349.2404418011813 151.937999999905 353.6704418011813 153.197999999905 S 360.9104418011813 156.367999999905 362.9204418011813 156.54799999990502 C 364.8004418011813 156.507999999905 365.59044180118127 154.637999999905 365.0104418011813 153.407999999905 C 364.3604418011813 152.007999999905 363.1804418011813 150.457999999905 359.1104418011813 148.907999999905 z" id="imagebot_26"/>
  <path stroke="black" stroke-width="0.036" stroke-miterlimit="10" fill-rule="evenodd" d="M 151.2404418011813 460.097999999905 C 147.0304418011813 457.357999999905 144.8004418011813 453.617999999905 144.6904418011813 448.867999999905 C 144.5804418011813 444.037999999905 146.3104418011813 438.317999999905 150.3104418011813 431.547999999905 C 148.3604418011813 424.747999999905 147.5404418011813 418.807999999905 147.9704418011813 413.297999999905 C 148.3604418011813 407.787999999905 149.8804418011813 402.997999999905 152.6504418011813 398.787999999905 C 151.7104418011813 394.577999999905 151.7104418011813 390.937999999905 152.6504418011813 388.027999999905 C 153.5804418011813 384.96799999990503 155.4604418011813 382.767999999905 158.2604418011813 381.007999999905 C 156.5004418011813 375.097999999905 155.92044180118128 370.277999999905 156.39044180118128 365.987999999905 C 156.8604418011813 361.747999999905 158.3704418011813 358.357999999905 161.0704418011813 355.697999999905 C 159.6004418011813 350.047999999905 159.8504418011813 345.397999999905 161.5404418011813 341.187999999905 C 163.23044180118129 336.937999999905 166.5104418011813 333.697999999905 171.3704418011813 330.887999999905 C 171.5104418011813 327.507999999905 172.7404418011813 324.697999999905 174.64044180118128 322.46799999990503 C 176.5504418011813 320.127999999905 179.3604418011813 318.537999999905 183.0704418011813 317.317999999905 C 186.5604418011813 310.65799999990503 190.5904418011813 305.977999999905 195.70044180118128 303.277999999905 C 200.7104418011813 300.46799999990503 206.4004418011813 299.827999999905 213.0604418011813 300.937999999905 C 214.64044180118128 299.097999999905 218.0204418011813 298.347999999905 223.3504418011813 298.127999999905 C 228.6804418011813 297.987999999905 235.8104418011813 298.557999999905 244.8804418011813 299.997999999905 C 252.1904418011813 297.807999999905 258.4504418011813 296.867999999905 264.0704418011813 297.197999999905 C 269.5804418011813 297.477999999905 274.2604418011813 298.997999999905 278.1104418011813 301.877999999905 C 285.2404418011813 302.447999999905 290.4904418011813 303.597999999905 294.0204418011813 305.617999999905 C 297.5504418011813 307.597999999905 299.1704418011813 310.15799999990503 299.1704418011813 313.577999999905 C 306.0104418011813 315.517999999905 310.4004418011813 317.96799999990503 312.7404418011813 321.057999999905 C 314.9704418011813 324.15799999990503 314.9704418011813 327.617999999905 312.7404418011813 331.827999999905 C 317.4204418011813 334.997999999905 320.34044180118127 338.15799999990503 321.6304418011813 341.187999999905 C 322.8604418011813 344.247999999905 322.3904418011813 347.15799999990503 320.2304418011813 350.077999999905 C 323.2504418011813 353.747999999905 325.2304418011813 357.817999999905 326.3104418011813 362.277999999905 C 327.3204418011813 366.707999999905 327.3204418011813 371.497999999905 326.3104418011813 376.787999999905 C 329.3004418011813 381.257999999905 331.0604418011813 385.577999999905 331.4604418011813 389.897999999905 C 331.8604418011813 394.247999999905 330.9204418011813 398.287999999905 328.6504418011813 402.527999999905 C 332.5404418011813 408.287999999905 334.7004418011813 413.547999999905 335.6704418011813 418.447999999905 C 336.5004418011813 423.267999999905 335.9204418011813 427.587999999905 333.8004418011813 431.547999999905 C 337.0404418011813 435.547999999905 338.7704418011813 439.037999999905 339.4204418011813 442.307999999905 C 339.9604418011813 445.477999999905 339.1304418011813 448.287999999905 337.0804418011813 450.737999999905 C 339.5604418011813 455.267999999905 340.3204418011813 460.347999999905 339.8804418011813 466.647999999905 C 339.34044180118127 472.767999999905 337.5404418011813 482.887999999905 333.8004418011813 487.707999999905 C 329.8804418011813 492.457999999905 324.4404418011813 494.90799999990503 316.9504418011813 495.197999999905 C 317.2004418011813 498.65799999990503 316.0504418011813 501.097999999905 313.2104418011813 502.687999999905 C 310.3304418011813 504.267999999905 306.0104418011813 504.847999999905 300.1004418011813 504.557999999905 C 298.34044180118127 507.547999999905 294.4904418011813 509.527999999905 288.4004418011813 510.637999999905 C 282.1004418011813 511.687999999905 273.0004418011813 511.147999999905 263.6004418011813 511.107999999905 C 254.1004418011813 511.037999999905 240.0604418011813 511.327999999905 232.7104418011813 510.167999999905 C 225.3304418011813 508.947999999905 221.3004418011813 506.71799999990503 220.0804418011813 503.617999999905 C 215.3204418011813 505.777999999905 211.2604418011813 506.71799999990503 207.8704418011813 506.427999999905 C 204.3404418011813 506.107999999905 201.6804418011813 504.587999999905 199.48044180118129 501.747999999905 C 192.1804418011813 502.577999999905 186.6004418011813 502.577999999905 182.6004418011813 501.747999999905 C 178.5004418011813 500.807999999905 176.3404418011813 499.227999999905 175.5804418011813 496.597999999905 C 167.95044180118128 495.807999999905 162.5804418011813 494.687999999905 159.20044180118128 492.857999999905 C 155.7804418011813 491.017999999905 154.6304418011813 488.677999999905 155.4604418011813 485.837999999905 C 150.7804418011813 483.817999999905 148.2604418011813 480.827999999905 147.5004418011813 476.477999999905 C 146.8504418011813 472.117999999905 147.9704418011813 466.787999999905 151.2404418011813 460.097999999905 z" id="imagebot_22"/>
  <path fill-rule="evenodd" fill="#4c4c4c" d="M 156.39044180118128 458.227999999905 C 151.39044180118128 456.277999999905 148.8704418011813 453.257999999905 148.4404418011813 448.867999999905 C 148.0004418011813 444.46799999990503 149.8804418011813 438.857999999905 154.0504418011813 432.017999999905 C 151.17044180118128 426.367999999905 149.8804418011813 420.747999999905 150.3104418011813 415.167999999905 C 150.70044180118128 409.517999999905 152.6804418011813 403.897999999905 156.39044180118128 398.317999999905 C 154.3404418011813 395.327999999905 153.8704418011813 392.517999999905 154.9904418011813 389.897999999905 C 156.1004418011813 387.227999999905 158.6604418011813 384.787999999905 162.9404418011813 382.40799999990503 C 159.7404418011813 377.21799999990503 158.3404418011813 372.437999999905 158.73044180118129 367.897999999905 C 159.1604418011813 363.327999999905 161.2504418011813 359.147999999905 165.2804418011813 355.227999999905 C 162.6904418011813 350.617999999905 162.2204418011813 346.65799999990503 163.8804418011813 343.057999999905 C 165.5004418011813 339.387999999905 169.2404418011813 336.367999999905 175.1104418011813 333.697999999905 C 174.4604418011813 329.807999999905 175.0404418011813 326.787999999905 176.98044180118129 324.337999999905 C 178.89044180118128 321.857999999905 181.92044180118128 320.237999999905 186.3404418011813 319.197999999905 C 189.3004418011813 312.537999999905 193.1504418011813 307.847999999905 198.0404418011813 305.15799999990503 C 202.9404418011813 302.347999999905 208.6304418011813 301.697999999905 215.4004418011813 302.807999999905 C 216.98044180118129 300.977999999905 220.3604418011813 300.21799999990503 225.6904418011813 300.007999999905 C 231.0204418011813 299.857999999905 238.1504418011813 300.437999999905 247.2204418011813 301.877999999905 C 253.7704418011813 300.21799999990503 259.3504418011813 299.647999999905 264.5404418011813 300.007999999905 C 269.6804418011813 300.367999999905 273.8604418011813 301.767999999905 277.6404418011813 304.21799999990503 C 282.9304418011813 303.997999999905 286.8604418011813 304.827999999905 289.8104418011813 306.557999999905 C 292.6504418011813 308.207999999905 294.4204418011813 310.90799999990503 294.9604418011813 314.507999999905 C 301.8004418011813 316.457999999905 306.1904418011813 318.90799999990503 308.53044180118127 321.997999999905 C 310.7604418011813 325.097999999905 310.7604418011813 328.547999999905 308.53044180118127 332.767999999905 C 313.2104418011813 335.927999999905 316.1204418011813 339.097999999905 317.4204418011813 342.127999999905 C 318.6404418011813 345.187999999905 318.1804418011813 348.097999999905 316.0204418011813 351.017999999905 C 319.0404418011813 354.687999999905 321.0204418011813 358.757999999905 322.1004418011813 363.21799999990503 C 323.1104418011813 367.647999999905 323.1104418011813 372.437999999905 322.1004418011813 377.727999999905 C 325.09044180118127 382.187999999905 326.8504418011813 386.507999999905 327.2504418011813 390.827999999905 C 327.6404418011813 395.187999999905 326.7104418011813 399.21799999990503 324.4404418011813 403.46799999990503 C 328.3304418011813 409.227999999905 330.4904418011813 414.487999999905 331.4604418011813 419.377999999905 C 332.2904418011813 424.207999999905 331.7104418011813 428.527999999905 329.59044180118127 432.487999999905 C 332.8304418011813 436.477999999905 334.5604418011813 439.96799999990503 335.2004418011813 443.247999999905 C 335.7404418011813 446.417999999905 334.9204418011813 449.227999999905 332.8604418011813 451.667999999905 C 335.1304418011813 456.347999999905 336.0704418011813 461.607999999905 335.6704418011813 467.587999999905 C 335.2404418011813 473.557999999905 334.2704418011813 483.207999999905 330.5204418011813 487.237999999905 C 326.6404418011813 491.167999999905 320.8004418011813 492.317999999905 312.7404418011813 490.987999999905 C 312.9904418011813 494.437999999905 311.84044180118127 496.887999999905 309.0004418011813 498.46799999990503 C 306.1204418011813 500.057999999905 301.8004418011813 500.627999999905 295.8904418011813 500.337999999905 C 297.4404418011813 503.727999999905 295.6804418011813 506.067999999905 290.7404418011813 507.367999999905 C 285.6004418011813 508.587999999905 275.34044180118127 507.867999999905 265.9404418011813 507.827999999905 C 256.4404418011813 507.757999999905 242.4004418011813 508.047999999905 235.0504418011813 506.897999999905 C 227.67044180118128 505.667999999905 223.64044180118128 503.437999999905 222.42044180118128 500.337999999905 C 217.6304418011813 502.497999999905 213.70044180118128 503.437999999905 210.2104418011813 503.147999999905 C 206.7204418011813 502.827999999905 203.9104418011813 501.317999999905 201.7904418011813 498.46799999990503 C 194.4104418011813 499.297999999905 188.9704418011813 499.297999999905 184.9404418011813 498.46799999990503 C 180.9404418011813 497.537999999905 178.6004418011813 495.947999999905 177.92044180118128 493.327999999905 C 170.2904418011813 492.527999999905 164.92044180118128 491.417999999905 161.5404418011813 489.577999999905 C 158.1204418011813 487.747999999905 156.9704418011813 485.40799999990503 157.8004418011813 482.557999999905 C 153.0104418011813 481.547999999905 150.5604418011813 479.097999999905 150.3104418011813 475.067999999905 C 150.0904418011813 471.007999999905 152.0704418011813 465.387999999905 156.39044180118128 458.227999999905 z" id="imagebot_21"/>
  <path stroke="black" stroke-width="0.036" stroke-miterlimit="10" fill-rule="evenodd" d="M 189.1504418011813 343.997999999905 C 193.5404418011813 358.327999999905 198.3304418011813 369.917999999905 203.6604418011813 379.597999999905 C 208.8804418011813 389.137999999905 213.7404418011813 396.267999999905 221.0104418011813 401.127999999905 C 228.39044180118128 405.877999999905 238.6204418011813 408.367999999905 247.2204418011813 408.147999999905 C 255.7904418011813 407.827999999905 265.3304418011813 405.557999999905 271.5604418011813 399.257999999905 C 277.53044180118127 392.847999999905 279.9404418011813 379.417999999905 283.2604418011813 370.207999999905 C 286.5004418011813 360.917999999905 289.2004418011813 352.277999999905 291.2104418011813 343.997999999905 C 277.4604418011813 348.057999999905 262.4504418011813 350.047999999905 245.3504418011813 350.077999999905 C 228.2104418011813 350.047999999905 209.7104418011813 348.057999999905 189.1504418011813 343.997999999905 z" id="imagebot_20"/>
  <path fill-rule="evenodd" stroke="black" stroke-width="0.036" stroke-miterlimit="10" fill="white" d="M 194.7704418011813 348.677999999905 C 200.17044180118128 350.297999999905 206.6504418011813 351.40799999990503 214.89044180118128 352.417999999905 C 223.0604418011813 353.357999999905 234.4004418011813 353.927999999905 243.48044180118129 354.287999999905 C 252.4404418011813 354.577999999905 261.0804418011813 355.087999999905 268.28044180118127 354.287999999905 C 275.4404418011813 353.357999999905 281.2404418011813 351.767999999905 286.0604418011813 349.147999999905 L 278.1104418011813 373.517999999905 C 270.5104418011813 376.397999999905 263.0604418011813 378.267999999905 255.1804418011813 379.127999999905 C 247.2904418011813 379.997999999905 240.1604418011813 380.357999999905 231.3104418011813 378.667999999905 C 222.3804418011813 376.827999999905 212.5904418011813 373.447999999905 201.7904418011813 368.367999999905 C 199.45044180118128 361.817999999905 197.1104418011813 355.267999999905 194.7704418011813 348.677999999905 z" id="imagebot_19"/>
  <path fill-rule="evenodd" stroke="black" stroke-width="0.036" stroke-miterlimit="10" fill="white" d="M 205.0604418011813 374.447999999905 C 206.5804418011813 379.417999999905 209.3504418011813 383.957999999905 213.5204418011813 388.487999999905 C 217.6304418011813 392.987999999905 224.4304418011813 398.357999999905 229.9004418011813 401.127999999905 C 235.20044180118128 403.71799999990503 240.1304418011813 404.90799999990503 245.8204418011813 404.40799999990503 C 251.5004418011813 403.827999999905 258.8804418011813 402.387999999905 264.0704418011813 397.847999999905 C 269.1804418011813 393.137999999905 273.1404418011813 386.257999999905 276.2404418011813 376.787999999905 C 271.5204418011813 379.917999999905 265.4404418011813 381.897999999905 257.9804418011813 382.877999999905 C 250.3504418011813 383.847999999905 240.1604418011813 383.737999999905 231.3104418011813 382.40799999990503 C 222.3804418011813 380.927999999905 213.7804418011813 378.377999999905 205.0604418011813 374.447999999905 z" id="imagebot_18"/>
  <path stroke="black" stroke-width="0.036" stroke-miterlimit="10" fill-rule="evenodd" d="M 185.8804418011813 363.647999999905 C 186.5204418011813 367.787999999905 190.0204418011813 381.46799999990503 193.8304418011813 389.427999999905 C 197.4704418011813 397.237999999905 204.2404418011813 406.847999999905 207.8704418011813 410.487999999905 C 211.3304418011813 413.90799999990503 214.9604418011813 411.637999999905 214.89044180118128 410.487999999905 C 214.64044180118128 409.297999999905 210.2504418011813 406.957999999905 207.4004418011813 403.46799999990503 C 204.5204418011813 399.797999999905 200.89044180118128 395.327999999905 198.0404418011813 388.957999999905 C 195.0904418011813 382.437999999905 192.0704418011813 369.297999999905 190.0904418011813 365.087999999905 C 187.9604418011813 360.807999999905 185.2604418011813 359.587999999905 185.8804418011813 363.647999999905 z" id="imagebot_17"/>
  <path stroke="black" stroke-width="0.036" stroke-miterlimit="10" fill-rule="evenodd" d="M 220.5404418011813 411.887999999905 C 219.6104418011813 411.497999999905 217.0904418011813 413.90799999990503 217.2704418011813 414.697999999905 C 217.5204418011813 415.457999999905 221.3004418011813 417.007999999905 221.95044180118128 416.577999999905 C 222.42044180118128 416.067999999905 221.3004418011813 412.147999999905 220.5404418011813 411.887999999905 z" id="imagebot_16"/>
  <path stroke="black" stroke-width="0.036" stroke-miterlimit="10" fill-rule="evenodd" d="M 231.3104418011813 417.037999999905 C 233.1804418011813 418.007999999905 238.1804418011813 418.587999999905 243.0104418011813 418.90799999990503 C 247.8004418011813 419.017999999905 254.7104418011813 419.627999999905 259.8604418011813 417.977999999905 C 264.9004418011813 416.137999999905 271.34044180118127 410.377999999905 272.9604418011813 408.617999999905 C 274.2204418011813 406.817999999905 271.0604418011813 406.777999999905 268.7504418011813 407.677999999905 C 266.4104418011813 408.617999999905 263.4904418011813 412.357999999905 259.8604418011813 413.757999999905 C 256.0404418011813 414.917999999905 252.0104418011813 415.197999999905 247.2204418011813 415.167999999905 C 242.3604418011813 415.017999999905 234.48044180118129 412.96799999990503 231.7804418011813 413.297999999905 C 229.1104418011813 413.617999999905 229.3304418011813 416.027999999905 231.3104418011813 417.037999999905 z" id="imagebot_15"/>
  <path stroke="black" stroke-width="0.036" stroke-miterlimit="10" fill-rule="evenodd" d="M 270.1504418011813 495.667999999905 C 273.1404418011813 495.127999999905 277.9604418011813 495.557999999905 283.2604418011813 494.727999999905 C 288.4404418011813 493.71799999990503 296.9704418011813 491.987999999905 301.5104418011813 490.517999999905 C 305.9704418011813 488.897999999905 308.6004418011813 485.90799999990503 309.9304418011813 485.837999999905 C 311.1604418011813 485.797999999905 311.3004418011813 488.787999999905 309.0004418011813 490.517999999905 C 306.6204418011813 492.247999999905 301.3304418011813 494.437999999905 295.8904418011813 496.127999999905 C 290.2404418011813 497.747999999905 281.4204418011813 499.517999999905 276.2404418011813 499.877999999905 C 271.0504418011813 500.057999999905 266.4404418011813 498.257999999905 265.4704418011813 497.537999999905 C 264.4604418011813 496.777999999905 267.1304418011813 496.057999999905 270.1504418011813 495.667999999905 z" id="imagebot_14"/>
  <path stroke="black" stroke-width="0.036" stroke-miterlimit="10" fill-rule="evenodd" d="M 163.3004418011813 476.297999999905 C 166.0004418011813 477.40799999990503 170.0004418011813 480.397999999905 174.9004418011813 482.487999999905 C 179.7604418011813 484.537999999905 187.9604418011813 487.527999999905 192.5704418011813 488.677999999905 C 197.14044180118128 489.757999999905 201.0004418011813 488.457999999905 202.1804418011813 489.21799999990503 C 203.0804418011813 489.90799999990503 201.8604418011813 492.347999999905 198.9104418011813 492.677999999905 C 195.92044180118128 492.817999999905 190.3004418011813 492.027999999905 184.8304418011813 490.447999999905 C 179.2904418011813 488.71799999990503 170.6104418011813 485.617999999905 166.1804418011813 483.097999999905 C 161.6504418011813 480.437999999905 158.8404418011813 476.507999999905 158.3404418011813 475.357999999905 C 157.8004418011813 474.207999999905 160.42044180118128 475.037999999905 163.3004418011813 476.297999999905 z" id="imagebot_13"/>
  <path stroke="black" stroke-width="0.036" stroke-miterlimit="10" fill-rule="evenodd" d="M 209.4904418011813 489.46799999990503 C 208.5604418011813 489.547999999905 207.3304418011813 492.817999999905 207.9104418011813 493.46799999990503 C 208.4104418011813 493.96799999990503 212.6204418011813 493.617999999905 212.9104418011813 492.96799999990503 C 213.0904418011813 492.167999999905 210.2804418011813 489.437999999905 209.4904418011813 489.46799999990503 z" id="imagebot_12"/>
  <path stroke="black" stroke-width="0.036" stroke-miterlimit="10" fill-rule="evenodd" d="M 255.8204418011813 496.017999999905 C 254.89044180118128 496.097999999905 253.6604418011813 499.367999999905 254.2404418011813 500.017999999905 C 254.7404418011813 500.517999999905 258.9604418011813 500.167999999905 259.2404418011813 499.517999999905 C 259.4204418011813 498.727999999905 256.6204418011813 495.987999999905 255.8204418011813 496.017999999905 z" id="imagebot_11"/>
  <path stroke="black" stroke-width="0.036" stroke-miterlimit="10" fill-rule="evenodd" d="M 315.84044180118127 481.807999999905 C 315.3004418011813 482.417999999905 316.7004418011813 485.727999999905 317.5704418011813 485.767999999905 C 318.3204418011813 485.687999999905 320.9504418011813 482.487999999905 320.7304418011813 481.837999999905 C 320.2704418011813 481.117999999905 316.4104418011813 481.15799999990503 315.84044180118127 481.807999999905 z" id="imagebot_10"/>
  <path stroke="black" stroke-width="0.036" stroke-miterlimit="10" fill-rule="evenodd" d="M 236.64044180118128 201.727999999905 C 234.0104418011813 209.82799999990502 227.64044180118128 217.457999999905 217.5204418011813 224.76799999990502 C 207.2604418011813 232.10799999990502 191.0204418011813 241.897999999905 175.7604418011813 245.387999999905 C 160.2404418011813 248.707999999905 139.98044180118129 247.187999999905 126.2204418011813 244.887999999905 C 112.5104418011813 242.367999999905 102.0304418011813 235.817999999905 94.5094418011813 231.207999999905 C 86.9854418011813 226.667999999905 85.36544180118129 223.32799999990502 81.7294418011813 217.817999999905 C 78.0574418011813 212.057999999905 74.9614418011813 204.097999999905 72.8374418011813 197.687999999905 C 70.6774418011813 191.207999999905 69.0934418011813 185.377999999905 68.48144180118129 179.657999999905 C 65.0614418011813 181.927999999905 61.5694418011813 182.82799999990502 58.0054418011813 182.497999999905 C 54.29744180118129 182.10799999990502 50.193441801181294 178.897999999905 46.80944180118129 177.347999999905 C 43.3894418011813 175.627999999905 40.4014418011813 174.217999999905 37.701441801181296 172.707999999905 C 37.7374418011813 176.01799999990502 36.8374418011813 178.897999999905 35.397441801181294 181.207999999905 C 33.84944180118129 183.54799999990502 31.293441801181295 185.627999999905 28.557441801181294 186.637999999905 C 25.605441801181296 187.507999999905 20.817441801181296 187.867999999905 18.513441801181298 186.887999999905 C 16.209441801181296 185.777999999905 15.273441801181296 182.967999999905 14.877441801181297 180.697999999905 C 14.445441801181296 178.397999999905 15.093441801181296 175.29799999990502 15.561441801181296 173.207999999905 C 15.849441801181296 170.947999999905 16.173441801181294 169.32799999990502 16.677441801181295 167.807999999905 C 16.785441801181296 164.027999999905 17.829441801181297 160.897999999905 19.665441801181295 158.01799999990502 C 21.501441801181297 155.10799999990502 23.985441801181295 152.04799999990502 27.657441801181296 150.787999999905 C 31.221441801181296 149.417999999905 35.757441801181294 149.197999999905 41.1214418011813 150.277999999905 C 46.449441801181294 151.427999999905 54.87344180118129 155.467999999905 59.589441801181295 157.51799999990502 C 64.1614418011813 159.427999999905 66.8254418011813 159.85799999990502 68.9494418011813 161.867999999905 C 71.07344180118129 163.777999999905 72.0454418011813 166.187999999905 72.1534418011813 169.10799999990502 C 72.8014418011813 168.247999999905 73.8814418011813 167.597999999905 75.1054418011813 166.76799999990502 C 76.1854418011813 165.937999999905 76.8334418011813 164.897999999905 79.6774418011813 164.467999999905 C 82.70144180118129 163.997999999905 86.8054418011813 163.777999999905 92.6734418011813 163.957999999905 C 123.7004418011813 163.927999999905 154.7404418011813 163.927999999905 187.17044180118128 163.957999999905 C 219.64044180118128 163.927999999905 251.9004418011813 163.927999999905 285.7404418011813 163.957999999905 L 380.2404418011813 163.957999999905 C 386.0704418011813 163.777999999905 390.1804418011813 163.997999999905 393.2404418011813 164.467999999905 C 395.9704418011813 164.897999999905 396.6604418011813 165.937999999905 397.8104418011813 166.76799999990502 C 399.0004418011813 167.597999999905 400.0804418011813 168.247999999905 400.7604418011813 169.10799999990502 C 400.8304418011813 166.187999999905 401.8004418011813 163.777999999905 403.9604418011813 161.867999999905 C 405.9804418011813 159.85799999990502 408.6804418011813 159.427999999905 413.3204418011813 157.51799999990502 C 417.9304418011813 155.467999999905 426.3604418011813 151.427999999905 431.7904418011813 150.277999999905 C 437.0804418011813 149.197999999905 441.6204418011813 149.417999999905 445.2604418011813 150.787999999905 C 448.8204418011813 152.04799999990502 451.3004418011813 155.10799999990502 453.2504418011813 158.01799999990502 C 455.0504418011813 160.897999999905 456.09044180118127 164.027999999905 456.2404418011813 167.807999999905 C 456.7004418011813 169.32799999990502 457.03044180118127 170.947999999905 457.3504418011813 173.207999999905 C 457.7104418011813 175.29799999990502 458.4004418011813 178.397999999905 458.0404418011813 180.697999999905 C 457.5704418011813 182.967999999905 456.6304418011813 185.777999999905 454.4004418011813 186.887999999905 C 451.9904418011813 187.867999999905 447.2004418011813 187.507999999905 444.3604418011813 186.637999999905 C 441.5104418011813 185.627999999905 438.9604418011813 183.54799999990502 437.5204418011813 181.207999999905 C 436.0404418011813 178.897999999905 435.1404418011813 176.01799999990502 435.2104418011813 172.707999999905 C 432.4804418011813 174.217999999905 429.4904418011813 175.627999999905 426.1004418011813 177.347999999905 C 422.6104418011813 178.897999999905 418.5104418011813 182.10799999990502 414.9104418011813 182.497999999905 C 411.2704418011813 182.82799999990502 407.78044180118127 181.927999999905 404.4304418011813 179.657999999905 C 403.78044180118127 185.377999999905 402.2004418011813 191.207999999905 400.0804418011813 197.687999999905 C 397.84044180118127 204.097999999905 394.78044180118127 212.057999999905 391.1804418011813 217.817999999905 C 387.4404418011813 223.32799999990502 385.8204418011813 226.667999999905 378.4004418011813 231.207999999905 C 370.7704418011813 235.817999999905 360.3304418011813 242.367999999905 346.6904418011813 244.887999999905 C 332.8604418011813 247.187999999905 312.5604418011813 248.707999999905 297.1504418011813 245.387999999905 C 281.8504418011813 241.897999999905 265.4704418011813 232.10799999990502 255.39044180118128 224.76799999990502 C 245.2404418011813 217.457999999905 239.0804418011813 209.82799999990502 236.64044180118128 201.727999999905 z M 92.7804418011813 189.377999999905 C 93.2484418011813 192.757999999905 94.86844180118129 196.177999999905 97.6404418011813 199.777999999905 C 100.3794418011813 203.307999999905 102.96944180118129 207.197999999905 109.2994418011813 210.757999999905 C 115.5994418011813 214.217999999905 125.4294418011813 218.677999999905 135.03944180118128 220.657999999905 C 144.5494418011813 222.457999999905 155.4894418011813 223.757999999905 165.9294418011813 222.027999999905 C 176.25944180118128 220.117999999905 187.8894418011813 215.76799999990502 196.5294418011813 210.217999999905 C 205.09944180118129 204.677999999905 211.7194418011813 197.727999999905 216.9394418011813 189.087999999905 C 175.5794418011813 189.157999999905 134.1794418011813 189.26799999990502 92.77944180118129 189.377999999905 L 92.7804418011813 189.377999999905 z M 380.2404418011813 189.377999999905 C 379.7404418011813 192.757999999905 378.1204418011813 196.177999999905 375.3804418011813 199.777999999905 C 372.5404418011813 203.307999999905 369.9404418011813 207.197999999905 363.7204418011813 210.757999999905 C 357.3504418011813 214.217999999905 347.5204418011813 218.677999999905 337.9804418011813 220.657999999905 C 328.4404418011813 222.457999999905 317.4604418011813 223.757999999905 307.1204418011813 222.027999999905 C 296.6904418011813 220.117999999905 285.1304418011813 215.76799999990502 276.4904418011813 210.217999999905 C 267.8804418011813 204.677999999905 261.2204418011813 197.727999999905 256.0804418011813 189.087999999905 C 297.4404418011813 189.157999999905 338.84044180118127 189.26799999990502 380.2404418011813 189.377999999905 z" id="imagebot_9"/>
  <path fill-rule="evenodd" stroke="black" stroke-width="0.036" stroke-miterlimit="10" fill="#000000" d="M 55.98944180118129 159.787999999905 C 53.253441801181296 158.197999999905 50.37344180118129 156.907999999905 47.34944180118129 155.747999999905 C 44.18144180118129 154.417999999905 40.79744180118129 153.127999999905 37.7374418011813 152.837999999905 C 34.5334418011813 152.437999999905 31.293441801181295 153.337999999905 28.989441801181297 154.167999999905 C 26.613441801181295 154.997999999905 25.749441801181295 155.82799999990502 24.165441801181295 158.057999999905 C 22.545441801181298 160.32799999990502 20.745441801181297 163.747999999905 19.737441801181298 167.197999999905 C 18.657441801181296 170.407999999905 17.901441801181296 174.82799999990502 17.901441801181296 177.567999999905 C 17.757441801181297 180.197999999905 17.721441801181296 181.887999999905 19.305441801181296 182.927999999905 C 20.781441801181295 183.907999999905 24.849441801181296 184.117999999905 27.189441801181296 183.437999999905 C 29.565441801181297 182.567999999905 31.617441801181297 180.627999999905 33.201441801181296 178.177999999905 C 34.677441801181295 175.727999999905 35.6494418011813 172.597999999905 36.11744180118129 168.787999999905 C 40.869441801181296 171.127999999905 45.2614418011813 173.067999999905 49.293441801181295 174.757999999905 C 53.3254418011813 176.417999999905 57.141441801181294 178.507999999905 60.201441801181296 178.687999999905 C 63.11744180118129 178.757999999905 65.7454418011813 177.427999999905 67.1134418011813 175.51799999990502 C 68.4094418011813 173.537999999905 68.84144180118129 169.287999999905 67.8694418011813 167.087999999905 C 66.64544180118129 164.787999999905 62.397441801181294 163.127999999905 60.4174418011813 161.977999999905 C 58.43744180118129 160.787999999905 56.961441801181294 159.967999999905 55.98944180118129 159.787999999905 z" id="imagebot_8"/>
  <path fill-rule="evenodd" stroke="black" stroke-width="0.036" stroke-miterlimit="10" fill="#000000" d="M 417.7204418011813 159.787999999905 C 420.4204418011813 158.197999999905 423.3004418011813 156.907999999905 426.3604418011813 155.747999999905 C 429.4204418011813 154.417999999905 432.8004418011813 153.127999999905 435.9704418011813 152.837999999905 C 439.0704418011813 152.437999999905 442.3104418011813 153.337999999905 444.7204418011813 154.167999999905 C 446.9504418011813 154.997999999905 447.9204418011813 155.82799999990502 449.5804418011813 158.057999999905 C 451.1204418011813 160.32799999990502 452.8204418011813 163.747999999905 453.9704418011813 167.197999999905 C 454.9404418011813 170.407999999905 455.7004418011813 174.82799999990502 455.8104418011813 177.567999999905 C 455.84044180118127 180.197999999905 455.8804418011813 181.887999999905 454.4004418011813 182.927999999905 C 452.78044180118127 183.907999999905 448.8204418011813 184.117999999905 446.5504418011813 183.437999999905 C 444.1404418011813 182.567999999905 441.9504418011813 180.627999999905 440.5004418011813 178.177999999905 C 438.9604418011813 175.727999999905 437.9804418011813 172.597999999905 437.59044180118127 168.787999999905 C 432.8004418011813 171.127999999905 428.4104418011813 173.067999999905 424.4104418011813 174.757999999905 C 420.2704418011813 176.417999999905 416.4604418011813 178.507999999905 413.5004418011813 178.687999999905 C 410.4804418011813 178.757999999905 407.8504418011813 177.427999999905 406.59044180118127 175.51799999990502 C 405.1904418011813 173.537999999905 404.7604418011813 169.287999999905 405.84044180118127 167.087999999905 C 406.9504418011813 164.787999999905 411.2004418011813 163.127999999905 413.2904418011813 161.977999999905 C 415.2304418011813 160.787999999905 416.7104418011813 159.967999999905 417.7204418011813 159.787999999905 z" id="imagebot_7"/>
  <path fill-rule="evenodd" fill="#000000" d="M 224.0404418011813 169.10799999990502 L 95.4404418011813 168.85799999990502 L 95.44544180118129 168.85799999990502 C 91.5934418011813 168.60799999990502 88.38944180118129 168.60799999990502 85.5454418011813 168.85799999990502 C 82.70144180118129 168.967999999905 80.1814418011813 169.427999999905 78.5254418011813 170.257999999905 C 76.7974418011813 171.157999999905 75.8614418011813 171.807999999905 75.0334418011813 174.007999999905 C 74.09744180118129 176.087999999905 72.7654418011813 178.687999999905 72.98144180118129 182.60799999990502 C 73.0534418011813 186.347999999905 73.34144180118129 190.707999999905 75.64544180118129 196.787999999905 C 77.8054418011813 202.947999999905 80.6854418011813 212.26799999990502 86.3734418011813 218.927999999905 C 92.2054418011813 225.377999999905 101.5304418011813 231.387999999905 109.88044180118129 235.457999999905 C 118.0504418011813 239.347999999905 126.0104418011813 241.467999999905 135.4004418011813 242.657999999905 C 144.8004418011813 243.697999999905 157.6204418011813 243.307999999905 165.9304418011813 242.437999999905 C 174.14044180118128 241.507999999905 177.20044180118128 240.317999999905 184.2604418011813 237.757999999905 C 191.17044180118128 235.027999999905 200.8204418011813 230.807999999905 207.3704418011813 227.067999999905 C 213.7404418011813 223.217999999905 218.7104418011813 219.287999999905 222.8104418011813 215.437999999905 C 226.8804418011813 211.587999999905 229.3304418011813 207.627999999905 231.67044180118128 204.247999999905 C 233.8604418011813 200.747999999905 235.3804418011813 197.907999999905 236.20044180118128 195.167999999905 C 237.0004418011813 197.907999999905 238.5104418011813 200.747999999905 240.7404418011813 204.247999999905 C 242.9704418011813 207.627999999905 245.42044180118128 211.587999999905 249.6004418011813 215.437999999905 C 253.5604418011813 219.287999999905 258.6704418011813 223.217999999905 265.0804418011813 227.067999999905 C 271.5604418011813 230.807999999905 281.1004418011813 235.027999999905 288.1504418011813 237.757999999905 C 295.1004418011813 240.317999999905 298.2004418011813 241.507999999905 306.4804418011813 242.437999999905 C 314.6804418011813 243.307999999905 327.5004418011813 243.697999999905 337.0004418011813 242.657999999905 C 346.3604418011813 241.467999999905 354.28044180118127 239.347999999905 362.5604418011813 235.457999999905 C 370.8104418011813 231.387999999905 380.2004418011813 225.377999999905 386.0404418011813 218.927999999905 C 391.6504418011813 212.26799999990502 394.53044180118127 202.947999999905 396.7604418011813 196.787999999905 C 399.0004418011813 190.707999999905 399.28044180118127 186.347999999905 399.4304418011813 182.60799999990502 C 399.5404418011813 178.687999999905 398.2004418011813 176.087999999905 397.3804418011813 174.007999999905 C 396.4804418011813 171.807999999905 395.5004418011813 171.157999999905 393.8804418011813 170.257999999905 C 392.1204418011813 169.427999999905 389.6004418011813 168.967999999905 386.8604418011813 168.85799999990502 C 383.9804418011813 168.60799999990502 380.78044180118127 168.60799999990502 376.9604418011813 168.85799999990502 L 248.3704418011813 169.10799999990502 L 224.0404418011813 169.10799999990502 z M 222.5604418011813 184.877999999905 L 87.5604418011813 184.877999999905 L 87.5614418011813 184.877999999905 C 88.9294418011813 191.35799999990502 91.34144180118129 196.967999999905 94.7974418011813 202.157999999905 C 98.2174418011813 207.26799999990502 102.32044180118129 211.697999999905 108.0804418011813 215.437999999905 C 113.8404418011813 219.037999999905 119.9204418011813 221.887999999905 128.8504418011813 223.82799999990502 C 137.7404418011813 225.76799999990502 150.42044180118128 227.60799999990502 160.64044180118128 226.847999999905 C 170.7604418011813 225.947999999905 181.3404418011813 221.557999999905 188.9004418011813 218.677999999905 C 196.3504418011813 215.79799999990502 199.92044180118128 213.567999999905 204.9904418011813 209.60799999990502 C 209.89044180118128 205.397999999905 215.4304418011813 198.627999999905 218.42044180118128 194.447999999905 C 221.3404418011813 190.277999999905 222.67044180118128 187.177999999905 222.5604418011813 184.877999999905 z M 250.42044180118128 184.877999999905 L 385.3904418011813 184.877999999905 C 383.9904418011813 191.35799999990502 381.5704418011813 196.967999999905 378.1504418011813 202.157999999905 C 374.6304418011813 207.26799999990502 370.5204418011813 211.697999999905 364.8704418011813 215.437999999905 C 359.0004418011813 219.037999999905 352.9504418011813 221.887999999905 344.1004418011813 223.82799999990502 C 335.1004418011813 225.76799999990502 322.4604418011813 227.60799999990502 312.3104418011813 226.847999999905 C 302.1204418011813 225.947999999905 291.5004418011813 221.557999999905 284.0504418011813 218.677999999905 C 276.4904418011813 215.79799999990502 272.9304418011813 213.567999999905 267.9604418011813 209.60799999990502 C 262.9904418011813 205.397999999905 257.4104418011813 198.627999999905 254.5304418011813 194.447999999905 C 251.5804418011813 190.277999999905 250.2104418011813 187.177999999905 250.42044180118128 184.877999999905 z" id="imagebot_6"/>
  <title>imagebot_2</title>
 </g>
 <metadata>image/svg+xmlOpenclipartMan Face Cartoon2006-10-18T10:53:17Uploaded by "World Label" for conversion to SVG and publication on OCAL.https://openclipart.org/detail/732/man-face-cartoon-by-gerald_g-732Gerald_Gcartoonexternalsourcefacemanpeopleremixworldlabel</metadata>
</svg>